<svg xmlns="http://www.w3.org/2000/svg" viewBox="0 0 28 20" width="280" height="200" shape-rendering="crispEdges"><style>
.f0{animation:a .5s steps(1) infinite}.f1{animation:b .5s steps(1) infinite}
@keyframes a{0%{opacity:1}50%{opacity:0}}
@keyframes b{0%{opacity:0}50%{opacity:1}}
.bob{animation:bob .5s steps(1) infinite}
@keyframes bob{0%{transform:translateY(0)}50%{transform:translateY(-0.5px)}}
.blink{opacity:0;animation:bl 4s steps(1) infinite}
@keyframes bl{0%{opacity:0}92%{opacity:1}96%{opacity:0}}
.heart{opacity:0;animation:h 3s ease-out infinite}
@keyframes h{0%{opacity:0;transform:translateY(4px)}30%{opacity:1}100%{opacity:0;transform:translateY(-2px)}}
</style><ellipse cx="15.0" cy="18.7" rx="10" ry="0.9" fill="#7B2FF2" opacity=".18"/><g class="bob"><g class="f0"><rect x="2" y="7" width="1.02" height="1.02" fill="#2A0A55"/><rect x="2" y="8" width="1.02" height="1.02" fill="#2A0A55"/><rect x="2" y="9" width="1.02" height="1.02" fill="#2A0A55"/><rect x="3" y="5" width="1.02" height="1.02" fill="#2A0A55"/><rect x="3" y="6" width="1.02" height="1.02" fill="#2A0A55"/><rect x="3" y="7" width="1.02" height="1.02" fill="#7B2FF2"/><rect x="3" y="8" width="1.02" height="1.02" fill="#7B2FF2"/><rect x="3" y="9" width="1.02" height="1.02" fill="#7B2FF2"/><rect x="3" y="10" width="1.02" height="1.02" fill="#2A0A55"/><rect x="3" y="11" width="1.02" height="1.02" fill="#2A0A55"/><rect x="4" y="4" width="1.02" height="1.02" fill="#2A0A55"/><rect x="4" y="5" width="1.02" height="1.02" fill="#7B2FF2"/><rect x="4" y="6" width="1.02" height="1.02" fill="#7B2FF2"/><rect x="4" y="7" width="1.02" height="1.02" fill="#7B2FF2"/><rect x="4" y="8" width="1.02" height="1.02" fill="#7B2FF2"/><rect x="4" y="9" width="1.02" height="1.02" fill="#7B2FF2"/><rect x="4" y="10" width="1.02" height="1.02" fill="#7B2FF2"/><rect x="4" y="11" width="1.02" height="1.02" fill="#7B2FF2"/><rect x="4" y="12" width="1.02" height="1.02" fill="#2A0A55"/><rect x="5" y="4" width="1.02" height="1.02" fill="#2A0A55"/><rect x="5" y="5" width="1.02" height="1.02" fill="#7B2FF2"/><rect x="5" y="6" width="1.02" height="1.02" fill="#7B2FF2"/><rect x="5" y="7" width="1.02" height="1.02" fill="#2A0A55"/><rect x="5" y="8" width="1.02" height="1.02" fill="#2A0A55"/><rect x="5" y="9" width="1.02" height="1.02" fill="#2A0A55"/><rect x="5" y="10" width="1.02" height="1.02" fill="#7B2FF2"/><rect x="5" y="11" width="1.02" height="1.02" fill="#7B2FF2"/><rect x="5" y="12" width="1.02" height="1.02" fill="#7B2FF2"/><rect x="5" y="13" width="1.02" height="1.02" fill="#2A0A55"/><rect x="6" y="5" width="1.02" height="1.02" fill="#2A0A55"/><rect x="6" y="6" width="1.02" height="1.02" fill="#2A0A55"/><rect x="6" y="8" width="1.02" height="1.02" fill="#2A0A55"/><rect x="6" y="9" width="1.02" height="1.02" fill="#7B2FF2"/><rect x="6" y="10" width="1.02" height="1.02" fill="#7B2FF2"/><rect x="6" y="11" width="1.02" height="1.02" fill="#7B2FF2"/><rect x="6" y="12" width="1.02" height="1.02" fill="#7B2FF2"/><rect x="6" y="13" width="1.02" height="1.02" fill="#5A1BB8"/><rect x="6" y="14" width="1.02" height="1.02" fill="#2A0A55"/><rect x="6" y="15" width="1.02" height="1.02" fill="#2A0A55"/><rect x="7" y="8" width="1.02" height="1.02" fill="#2A0A55"/><rect x="7" y="9" width="1.02" height="1.02" fill="#7B2FF2"/><rect x="7" y="10" width="1.02" height="1.02" fill="#7B2FF2"/><rect x="7" y="11" width="1.02" height="1.02" fill="#7B2FF2"/><rect x="7" y="12" width="1.02" height="1.02" fill="#7B2FF2"/><rect x="7" y="13" width="1.02" height="1.02" fill="#5A1BB8"/><rect x="7" y="14" width="1.02" height="1.02" fill="#5A1BB8"/><rect x="7" y="15" width="1.02" height="1.02" fill="#C9A3FF"/><rect x="7" y="16" width="1.02" height="1.02" fill="#2A0A55"/><rect x="8" y="8" width="1.02" height="1.02" fill="#2A0A55"/><rect x="8" y="9" width="1.02" height="1.02" fill="#5A1BB8"/><rect x="8" y="10" width="1.02" height="1.02" fill="#5A1BB8"/><rect x="8" y="11" width="1.02" height="1.02" fill="#7B2FF2"/><rect x="8" y="12" width="1.02" height="1.02" fill="#7B2FF2"/><rect x="8" y="13" width="1.02" height="1.02" fill="#5A1BB8"/><rect x="8" y="14" width="1.02" height="1.02" fill="#5A1BB8"/><rect x="8" y="15" width="1.02" height="1.02" fill="#C9A3FF"/><rect x="8" y="16" width="1.02" height="1.02" fill="#2A0A55"/><rect x="9" y="8" width="1.02" height="1.02" fill="#2A0A55"/><rect x="9" y="9" width="1.02" height="1.02" fill="#7B2FF2"/><rect x="9" y="10" width="1.02" height="1.02" fill="#7B2FF2"/><rect x="9" y="11" width="1.02" height="1.02" fill="#7B2FF2"/><rect x="9" y="12" width="1.02" height="1.02" fill="#C9A3FF"/><rect x="9" y="13" width="1.02" height="1.02" fill="#C9A3FF"/><rect x="9" y="14" width="1.02" height="1.02" fill="#2A0A55"/><rect x="9" y="15" width="1.02" height="1.02" fill="#2A0A55"/><rect x="9" y="16" width="1.02" height="1.02" fill="#2A0A55"/><rect x="10" y="8" width="1.02" height="1.02" fill="#2A0A55"/><rect x="10" y="9" width="1.02" height="1.02" fill="#7B2FF2"/><rect x="10" y="10" width="1.02" height="1.02" fill="#7B2FF2"/><rect x="10" y="11" width="1.02" height="1.02" fill="#7B2FF2"/><rect x="10" y="12" width="1.02" height="1.02" fill="#C9A3FF"/><rect x="10" y="13" width="1.02" height="1.02" fill="#C9A3FF"/><rect x="10" y="14" width="1.02" height="1.02" fill="#5A1BB8"/><rect x="10" y="15" width="1.02" height="1.02" fill="#5A1BB8"/><rect x="10" y="16" width="1.02" height="1.02" fill="#C9A3FF"/><rect x="10" y="17" width="1.02" height="1.02" fill="#2A0A55"/><rect x="11" y="8" width="1.02" height="1.02" fill="#2A0A55"/><rect x="11" y="9" width="1.02" height="1.02" fill="#5A1BB8"/><rect x="11" y="10" width="1.02" height="1.02" fill="#5A1BB8"/><rect x="11" y="11" width="1.02" height="1.02" fill="#7B2FF2"/><rect x="11" y="12" width="1.02" height="1.02" fill="#C9A3FF"/><rect x="11" y="13" width="1.02" height="1.02" fill="#C9A3FF"/><rect x="11" y="14" width="1.02" height="1.02" fill="#5A1BB8"/><rect x="11" y="15" width="1.02" height="1.02" fill="#5A1BB8"/><rect x="11" y="16" width="1.02" height="1.02" fill="#C9A3FF"/><rect x="11" y="17" width="1.02" height="1.02" fill="#2A0A55"/><rect x="12" y="8" width="1.02" height="1.02" fill="#2A0A55"/><rect x="12" y="9" width="1.02" height="1.02" fill="#7B2FF2"/><rect x="12" y="10" width="1.02" height="1.02" fill="#7B2FF2"/><rect x="12" y="11" width="1.02" height="1.02" fill="#7B2FF2"/><rect x="12" y="12" width="1.02" height="1.02" fill="#C9A3FF"/><rect x="12" y="13" width="1.02" height="1.02" fill="#C9A3FF"/><rect x="12" y="14" width="1.02" height="1.02" fill="#2A0A55"/><rect x="12" y="15" width="1.02" height="1.02" fill="#2A0A55"/><rect x="12" y="16" width="1.02" height="1.02" fill="#2A0A55"/><rect x="13" y="8" width="1.02" height="1.02" fill="#2A0A55"/><rect x="13" y="9" width="1.02" height="1.02" fill="#7B2FF2"/><rect x="13" y="10" width="1.02" height="1.02" fill="#7B2FF2"/><rect x="13" y="11" width="1.02" height="1.02" fill="#7B2FF2"/><rect x="13" y="12" width="1.02" height="1.02" fill="#C9A3FF"/><rect x="13" y="13" width="1.02" height="1.02" fill="#C9A3FF"/><rect x="13" y="14" width="1.02" height="1.02" fill="#2A0A55"/><rect x="14" y="4" width="1.02" height="1.02" fill="#2A0A55"/><rect x="14" y="5" width="1.02" height="1.02" fill="#2A0A55"/><rect x="14" y="6" width="1.02" height="1.02" fill="#2A0A55"/><rect x="14" y="7" width="1.02" height="1.02" fill="#2A0A55"/><rect x="14" y="8" width="1.02" height="1.02" fill="#2A0A55"/><rect x="14" y="9" width="1.02" height="1.02" fill="#5A1BB8"/><rect x="14" y="10" width="1.02" height="1.02" fill="#7B2FF2"/><rect x="14" y="11" width="1.02" height="1.02" fill="#7B2FF2"/><rect x="14" y="12" width="1.02" height="1.02" fill="#C9A3FF"/><rect x="14" y="13" width="1.02" height="1.02" fill="#C9A3FF"/><rect x="14" y="14" width="1.02" height="1.02" fill="#2A0A55"/><rect x="14" y="15" width="1.02" height="1.02" fill="#2A0A55"/><rect x="14" y="16" width="1.02" height="1.02" fill="#2A0A55"/><rect x="15" y="2" width="1.02" height="1.02" fill="#2A0A55"/><rect x="15" y="3" width="1.02" height="1.02" fill="#2A0A55"/><rect x="15" y="4" width="1.02" height="1.02" fill="#7B2FF2"/><rect x="15" y="5" width="1.02" height="1.02" fill="#7B2FF2"/><rect x="15" y="6" width="1.02" height="1.02" fill="#7B2FF2"/><rect x="15" y="7" width="1.02" height="1.02" fill="#7B2FF2"/><rect x="15" y="8" width="1.02" height="1.02" fill="#7B2FF2"/><rect x="15" y="9" width="1.02" height="1.02" fill="#7B2FF2"/><rect x="15" y="10" width="1.02" height="1.02" fill="#7B2FF2"/><rect x="15" y="11" width="1.02" height="1.02" fill="#7B2FF2"/><rect x="15" y="12" width="1.02" height="1.02" fill="#C9A3FF"/><rect x="15" y="13" width="1.02" height="1.02" fill="#C9A3FF"/><rect x="15" y="14" width="1.02" height="1.02" fill="#5A1BB8"/><rect x="15" y="15" width="1.02" height="1.02" fill="#5A1BB8"/><rect x="15" y="16" width="1.02" height="1.02" fill="#C9A3FF"/><rect x="15" y="17" width="1.02" height="1.02" fill="#2A0A55"/><rect x="16" y="1" width="1.02" height="1.02" fill="#2A0A55"/><rect x="16" y="2" width="1.02" height="1.02" fill="#7B2FF2"/><rect x="16" y="3" width="1.02" height="1.02" fill="#7B2FF2"/><rect x="16" y="4" width="1.02" height="1.02" fill="#7B2FF2"/><rect x="16" y="5" width="1.02" height="1.02" fill="#7B2FF2"/><rect x="16" y="6" width="1.02" height="1.02" fill="#7B2FF2"/><rect x="16" y="7" width="1.02" height="1.02" fill="#FF6FA0"/><rect x="16" y="8" width="1.02" height="1.02" fill="#7B2FF2"/><rect x="16" y="9" width="1.02" height="1.02" fill="#7B2FF2"/><rect x="16" y="10" width="1.02" height="1.02" fill="#7B2FF2"/><rect x="16" y="11" width="1.02" height="1.02" fill="#7B2FF2"/><rect x="16" y="12" width="1.02" height="1.02" fill="#C9A3FF"/><rect x="16" y="13" width="1.02" height="1.02" fill="#C9A3FF"/><rect x="16" y="14" width="1.02" height="1.02" fill="#5A1BB8"/><rect x="16" y="15" width="1.02" height="1.02" fill="#5A1BB8"/><rect x="16" y="16" width="1.02" height="1.02" fill="#C9A3FF"/><rect x="16" y="17" width="1.02" height="1.02" fill="#2A0A55"/><rect x="17" y="0" width="1.02" height="1.02" fill="#2A0A55"/><rect x="17" y="1" width="1.02" height="1.02" fill="#7B2FF2"/><rect x="17" y="2" width="1.02" height="1.02" fill="#FF8FB1"/><rect x="17" y="3" width="1.02" height="1.02" fill="#7B2FF2"/><rect x="17" y="4" width="1.02" height="1.02" fill="#7B2FF2"/><rect x="17" y="5" width="1.02" height="1.02" fill="#1E0A3C"/><rect x="17" y="6" width="1.02" height="1.02" fill="#1E0A3C"/><rect x="17" y="7" width="1.02" height="1.02" fill="#7B2FF2"/><rect x="17" y="8" width="1.02" height="1.02" fill="#7B2FF2"/><rect x="17" y="9" width="1.02" height="1.02" fill="#7B2FF2"/><rect x="17" y="10" width="1.02" height="1.02" fill="#7B2FF2"/><rect x="17" y="11" width="1.02" height="1.02" fill="#7B2FF2"/><rect x="17" y="12" width="1.02" height="1.02" fill="#C9A3FF"/><rect x="17" y="13" width="1.02" height="1.02" fill="#C9A3FF"/><rect x="17" y="14" width="1.02" height="1.02" fill="#2A0A55"/><rect x="17" y="15" width="1.02" height="1.02" fill="#2A0A55"/><rect x="17" y="16" width="1.02" height="1.02" fill="#2A0A55"/><rect x="18" y="1" width="1.02" height="1.02" fill="#2A0A55"/><rect x="18" y="2" width="1.02" height="1.02" fill="#7B2FF2"/><rect x="18" y="3" width="1.02" height="1.02" fill="#7B2FF2"/><rect x="18" y="4" width="1.02" height="1.02" fill="#7B2FF2"/><rect x="18" y="5" width="1.02" height="1.02" fill="#FFFFFF"/><rect x="18" y="6" width="1.02" height="1.02" fill="#1E0A3C"/><rect x="18" y="7" width="1.02" height="1.02" fill="#7B2FF2"/><rect x="18" y="8" width="1.02" height="1.02" fill="#7B2FF2"/><rect x="18" y="9" width="1.02" height="1.02" fill="#7B2FF2"/><rect x="18" y="10" width="1.02" height="1.02" fill="#7B2FF2"/><rect x="18" y="11" width="1.02" height="1.02" fill="#7B2FF2"/><rect x="18" y="12" width="1.02" height="1.02" fill="#C9A3FF"/><rect x="18" y="13" width="1.02" height="1.02" fill="#C9A3FF"/><rect x="18" y="14" width="1.02" height="1.02" fill="#2A0A55"/><rect x="19" y="2" width="1.02" height="1.02" fill="#2A0A55"/><rect x="19" y="3" width="1.02" height="1.02" fill="#7B2FF2"/><rect x="19" y="4" width="1.02" height="1.02" fill="#7B2FF2"/><rect x="19" y="5" width="1.02" height="1.02" fill="#7B2FF2"/><rect x="19" y="6" width="1.02" height="1.02" fill="#7B2FF2"/><rect x="19" y="7" width="1.02" height="1.02" fill="#FF8FB1"/><rect x="19" y="8" width="1.02" height="1.02" fill="#5A1BB8"/><rect x="19" y="9" width="1.02" height="1.02" fill="#7B2FF2"/><rect x="19" y="10" width="1.02" height="1.02" fill="#7B2FF2"/><rect x="19" y="11" width="1.02" height="1.02" fill="#7B2FF2"/><rect x="19" y="12" width="1.02" height="1.02" fill="#7B2FF2"/><rect x="19" y="13" width="1.02" height="1.02" fill="#5A1BB8"/><rect x="19" y="14" width="1.02" height="1.02" fill="#2A0A55"/><rect x="19" y="15" width="1.02" height="1.02" fill="#2A0A55"/><rect x="20" y="2" width="1.02" height="1.02" fill="#2A0A55"/><rect x="20" y="3" width="1.02" height="1.02" fill="#7B2FF2"/><rect x="20" y="4" width="1.02" height="1.02" fill="#7B2FF2"/><rect x="20" y="5" width="1.02" height="1.02" fill="#7B2FF2"/><rect x="20" y="6" width="1.02" height="1.02" fill="#7B2FF2"/><rect x="20" y="7" width="1.02" height="1.02" fill="#FF8FB1"/><rect x="20" y="8" width="1.02" height="1.02" fill="#5A1BB8"/><rect x="20" y="9" width="1.02" height="1.02" fill="#7B2FF2"/><rect x="20" y="10" width="1.02" height="1.02" fill="#7B2FF2"/><rect x="20" y="11" width="1.02" height="1.02" fill="#7B2FF2"/><rect x="20" y="12" width="1.02" height="1.02" fill="#7B2FF2"/><rect x="20" y="13" width="1.02" height="1.02" fill="#5A1BB8"/><rect x="20" y="14" width="1.02" height="1.02" fill="#5A1BB8"/><rect x="20" y="15" width="1.02" height="1.02" fill="#C9A3FF"/><rect x="20" y="16" width="1.02" height="1.02" fill="#2A0A55"/><rect x="21" y="1" width="1.02" height="1.02" fill="#2A0A55"/><rect x="21" y="2" width="1.02" height="1.02" fill="#7B2FF2"/><rect x="21" y="3" width="1.02" height="1.02" fill="#7B2FF2"/><rect x="21" y="4" width="1.02" height="1.02" fill="#7B2FF2"/><rect x="21" y="5" width="1.02" height="1.02" fill="#1E0A3C"/><rect x="21" y="6" width="1.02" height="1.02" fill="#1E0A3C"/><rect x="21" y="7" width="1.02" height="1.02" fill="#7B2FF2"/><rect x="21" y="8" width="1.02" height="1.02" fill="#7B2FF2"/><rect x="21" y="9" width="1.02" height="1.02" fill="#7B2FF2"/><rect x="21" y="10" width="1.02" height="1.02" fill="#2A0A55"/><rect x="21" y="11" width="1.02" height="1.02" fill="#2A0A55"/><rect x="21" y="12" width="1.02" height="1.02" fill="#2A0A55"/><rect x="21" y="13" width="1.02" height="1.02" fill="#2A0A55"/><rect x="21" y="14" width="1.02" height="1.02" fill="#5A1BB8"/><rect x="21" y="15" width="1.02" height="1.02" fill="#C9A3FF"/><rect x="21" y="16" width="1.02" height="1.02" fill="#2A0A55"/><rect x="22" y="0" width="1.02" height="1.02" fill="#2A0A55"/><rect x="22" y="1" width="1.02" height="1.02" fill="#7B2FF2"/><rect x="22" y="2" width="1.02" height="1.02" fill="#FF8FB1"/><rect x="22" y="3" width="1.02" height="1.02" fill="#7B2FF2"/><rect x="22" y="4" width="1.02" height="1.02" fill="#7B2FF2"/><rect x="22" y="5" width="1.02" height="1.02" fill="#FFFFFF"/><rect x="22" y="6" width="1.02" height="1.02" fill="#1E0A3C"/><rect x="22" y="7" width="1.02" height="1.02" fill="#7B2FF2"/><rect x="22" y="8" width="1.02" height="1.02" fill="#7B2FF2"/><rect x="22" y="9" width="1.02" height="1.02" fill="#7B2FF2"/><rect x="22" y="10" width="1.02" height="1.02" fill="#2A0A55"/><rect x="22" y="14" width="1.02" height="1.02" fill="#2A0A55"/><rect x="22" y="15" width="1.02" height="1.02" fill="#2A0A55"/><rect x="23" y="1" width="1.02" height="1.02" fill="#2A0A55"/><rect x="23" y="2" width="1.02" height="1.02" fill="#7B2FF2"/><rect x="23" y="3" width="1.02" height="1.02" fill="#7B2FF2"/><rect x="23" y="4" width="1.02" height="1.02" fill="#7B2FF2"/><rect x="23" y="5" width="1.02" height="1.02" fill="#7B2FF2"/><rect x="23" y="6" width="1.02" height="1.02" fill="#7B2FF2"/><rect x="23" y="7" width="1.02" height="1.02" fill="#FF6FA0"/><rect x="23" y="8" width="1.02" height="1.02" fill="#7B2FF2"/><rect x="23" y="9" width="1.02" height="1.02" fill="#7B2FF2"/><rect x="23" y="10" width="1.02" height="1.02" fill="#2A0A55"/><rect x="24" y="2" width="1.02" height="1.02" fill="#2A0A55"/><rect x="24" y="3" width="1.02" height="1.02" fill="#2A0A55"/><rect x="24" y="4" width="1.02" height="1.02" fill="#7B2FF2"/><rect x="24" y="5" width="1.02" height="1.02" fill="#7B2FF2"/><rect x="24" y="6" width="1.02" height="1.02" fill="#7B2FF2"/><rect x="24" y="7" width="1.02" height="1.02" fill="#7B2FF2"/><rect x="24" y="8" width="1.02" height="1.02" fill="#7B2FF2"/><rect x="24" y="9" width="1.02" height="1.02" fill="#2A0A55"/><rect x="25" y="4" width="1.02" height="1.02" fill="#2A0A55"/><rect x="25" y="5" width="1.02" height="1.02" fill="#2A0A55"/><rect x="25" y="6" width="1.02" height="1.02" fill="#2A0A55"/><rect x="25" y="7" width="1.02" height="1.02" fill="#2A0A55"/><rect x="25" y="8" width="1.02" height="1.02" fill="#2A0A55"/></g><g class="f1"><rect x="3" y="8" width="1.02" height="1.02" fill="#2A0A55"/><rect x="3" y="9" width="1.02" height="1.02" fill="#2A0A55"/><rect x="3" y="10" width="1.02" height="1.02" fill="#2A0A55"/><rect x="3" y="11" width="1.02" height="1.02" fill="#2A0A55"/><rect x="4" y="6" width="1.02" height="1.02" fill="#2A0A55"/><rect x="4" y="7" width="1.02" height="1.02" fill="#2A0A55"/><rect x="4" y="8" width="1.02" height="1.02" fill="#7B2FF2"/><rect x="4" y="9" width="1.02" height="1.02" fill="#7B2FF2"/><rect x="4" y="10" width="1.02" height="1.02" fill="#7B2FF2"/><rect x="4" y="11" width="1.02" height="1.02" fill="#7B2FF2"/><rect x="4" y="12" width="1.02" height="1.02" fill="#2A0A55"/><rect x="5" y="5" width="1.02" height="1.02" fill="#2A0A55"/><rect x="5" y="6" width="1.02" height="1.02" fill="#7B2FF2"/><rect x="5" y="7" width="1.02" height="1.02" fill="#7B2FF2"/><rect x="5" y="8" width="1.02" height="1.02" fill="#7B2FF2"/><rect x="5" y="9" width="1.02" height="1.02" fill="#7B2FF2"/><rect x="5" y="10" width="1.02" height="1.02" fill="#7B2FF2"/><rect x="5" y="11" width="1.02" height="1.02" fill="#7B2FF2"/><rect x="5" y="12" width="1.02" height="1.02" fill="#7B2FF2"/><rect x="5" y="13" width="1.02" height="1.02" fill="#2A0A55"/><rect x="5" y="14" width="1.02" height="1.02" fill="#2A0A55"/><rect x="5" y="15" width="1.02" height="1.02" fill="#2A0A55"/><rect x="5" y="16" width="1.02" height="1.02" fill="#2A0A55"/><rect x="6" y="4" width="1.02" height="1.02" fill="#2A0A55"/><rect x="6" y="5" width="1.02" height="1.02" fill="#7B2FF2"/><rect x="6" y="6" width="1.02" height="1.02" fill="#7B2FF2"/><rect x="6" y="7" width="1.02" height="1.02" fill="#7B2FF2"/><rect x="6" y="8" width="1.02" height="1.02" fill="#2A0A55"/><rect x="6" y="9" width="1.02" height="1.02" fill="#7B2FF2"/><rect x="6" y="10" width="1.02" height="1.02" fill="#7B2FF2"/><rect x="6" y="11" width="1.02" height="1.02" fill="#7B2FF2"/><rect x="6" y="12" width="1.02" height="1.02" fill="#7B2FF2"/><rect x="6" y="13" width="1.02" height="1.02" fill="#5A1BB8"/><rect x="6" y="14" width="1.02" height="1.02" fill="#5A1BB8"/><rect x="6" y="15" width="1.02" height="1.02" fill="#5A1BB8"/><rect x="6" y="16" width="1.02" height="1.02" fill="#C9A3FF"/><rect x="6" y="17" width="1.02" height="1.02" fill="#2A0A55"/><rect x="7" y="4" width="1.02" height="1.02" fill="#2A0A55"/><rect x="7" y="5" width="1.02" height="1.02" fill="#7B2FF2"/><rect x="7" y="6" width="1.02" height="1.02" fill="#2A0A55"/><rect x="7" y="7" width="1.02" height="1.02" fill="#2A0A55"/><rect x="7" y="8" width="1.02" height="1.02" fill="#2A0A55"/><rect x="7" y="9" width="1.02" height="1.02" fill="#7B2FF2"/><rect x="7" y="10" width="1.02" height="1.02" fill="#7B2FF2"/><rect x="7" y="11" width="1.02" height="1.02" fill="#7B2FF2"/><rect x="7" y="12" width="1.02" height="1.02" fill="#7B2FF2"/><rect x="7" y="13" width="1.02" height="1.02" fill="#5A1BB8"/><rect x="7" y="14" width="1.02" height="1.02" fill="#5A1BB8"/><rect x="7" y="15" width="1.02" height="1.02" fill="#5A1BB8"/><rect x="7" y="16" width="1.02" height="1.02" fill="#C9A3FF"/><rect x="7" y="17" width="1.02" height="1.02" fill="#2A0A55"/><rect x="8" y="5" width="1.02" height="1.02" fill="#2A0A55"/><rect x="8" y="8" width="1.02" height="1.02" fill="#2A0A55"/><rect x="8" y="9" width="1.02" height="1.02" fill="#5A1BB8"/><rect x="8" y="10" width="1.02" height="1.02" fill="#5A1BB8"/><rect x="8" y="11" width="1.02" height="1.02" fill="#7B2FF2"/><rect x="8" y="12" width="1.02" height="1.02" fill="#7B2FF2"/><rect x="8" y="13" width="1.02" height="1.02" fill="#5A1BB8"/><rect x="8" y="14" width="1.02" height="1.02" fill="#2A0A55"/><rect x="8" y="15" width="1.02" height="1.02" fill="#2A0A55"/><rect x="8" y="16" width="1.02" height="1.02" fill="#2A0A55"/><rect x="9" y="8" width="1.02" height="1.02" fill="#2A0A55"/><rect x="9" y="9" width="1.02" height="1.02" fill="#7B2FF2"/><rect x="9" y="10" width="1.02" height="1.02" fill="#7B2FF2"/><rect x="9" y="11" width="1.02" height="1.02" fill="#7B2FF2"/><rect x="9" y="12" width="1.02" height="1.02" fill="#C9A3FF"/><rect x="9" y="13" width="1.02" height="1.02" fill="#C9A3FF"/><rect x="9" y="14" width="1.02" height="1.02" fill="#2A0A55"/><rect x="10" y="8" width="1.02" height="1.02" fill="#2A0A55"/><rect x="10" y="9" width="1.02" height="1.02" fill="#7B2FF2"/><rect x="10" y="10" width="1.02" height="1.02" fill="#7B2FF2"/><rect x="10" y="11" width="1.02" height="1.02" fill="#7B2FF2"/><rect x="10" y="12" width="1.02" height="1.02" fill="#C9A3FF"/><rect x="10" y="13" width="1.02" height="1.02" fill="#C9A3FF"/><rect x="10" y="14" width="1.02" height="1.02" fill="#2A0A55"/><rect x="10" y="15" width="1.02" height="1.02" fill="#2A0A55"/><rect x="11" y="8" width="1.02" height="1.02" fill="#2A0A55"/><rect x="11" y="9" width="1.02" height="1.02" fill="#5A1BB8"/><rect x="11" y="10" width="1.02" height="1.02" fill="#5A1BB8"/><rect x="11" y="11" width="1.02" height="1.02" fill="#7B2FF2"/><rect x="11" y="12" width="1.02" height="1.02" fill="#C9A3FF"/><rect x="11" y="13" width="1.02" height="1.02" fill="#C9A3FF"/><rect x="11" y="14" width="1.02" height="1.02" fill="#5A1BB8"/><rect x="11" y="15" width="1.02" height="1.02" fill="#C9A3FF"/><rect x="11" y="16" width="1.02" height="1.02" fill="#2A0A55"/><rect x="12" y="8" width="1.02" height="1.02" fill="#2A0A55"/><rect x="12" y="9" width="1.02" height="1.02" fill="#7B2FF2"/><rect x="12" y="10" width="1.02" height="1.02" fill="#7B2FF2"/><rect x="12" y="11" width="1.02" height="1.02" fill="#7B2FF2"/><rect x="12" y="12" width="1.02" height="1.02" fill="#C9A3FF"/><rect x="12" y="13" width="1.02" height="1.02" fill="#C9A3FF"/><rect x="12" y="14" width="1.02" height="1.02" fill="#5A1BB8"/><rect x="12" y="15" width="1.02" height="1.02" fill="#C9A3FF"/><rect x="12" y="16" width="1.02" height="1.02" fill="#2A0A55"/><rect x="13" y="8" width="1.02" height="1.02" fill="#2A0A55"/><rect x="13" y="9" width="1.02" height="1.02" fill="#7B2FF2"/><rect x="13" y="10" width="1.02" height="1.02" fill="#7B2FF2"/><rect x="13" y="11" width="1.02" height="1.02" fill="#7B2FF2"/><rect x="13" y="12" width="1.02" height="1.02" fill="#C9A3FF"/><rect x="13" y="13" width="1.02" height="1.02" fill="#C9A3FF"/><rect x="13" y="14" width="1.02" height="1.02" fill="#2A0A55"/><rect x="13" y="15" width="1.02" height="1.02" fill="#2A0A55"/><rect x="14" y="4" width="1.02" height="1.02" fill="#2A0A55"/><rect x="14" y="5" width="1.02" height="1.02" fill="#2A0A55"/><rect x="14" y="6" width="1.02" height="1.02" fill="#2A0A55"/><rect x="14" y="7" width="1.02" height="1.02" fill="#2A0A55"/><rect x="14" y="8" width="1.02" height="1.02" fill="#2A0A55"/><rect x="14" y="9" width="1.02" height="1.02" fill="#5A1BB8"/><rect x="14" y="10" width="1.02" height="1.02" fill="#7B2FF2"/><rect x="14" y="11" width="1.02" height="1.02" fill="#7B2FF2"/><rect x="14" y="12" width="1.02" height="1.02" fill="#C9A3FF"/><rect x="14" y="13" width="1.02" height="1.02" fill="#C9A3FF"/><rect x="14" y="14" width="1.02" height="1.02" fill="#2A0A55"/><rect x="15" y="2" width="1.02" height="1.02" fill="#2A0A55"/><rect x="15" y="3" width="1.02" height="1.02" fill="#2A0A55"/><rect x="15" y="4" width="1.02" height="1.02" fill="#7B2FF2"/><rect x="15" y="5" width="1.02" height="1.02" fill="#7B2FF2"/><rect x="15" y="6" width="1.02" height="1.02" fill="#7B2FF2"/><rect x="15" y="7" width="1.02" height="1.02" fill="#7B2FF2"/><rect x="15" y="8" width="1.02" height="1.02" fill="#7B2FF2"/><rect x="15" y="9" width="1.02" height="1.02" fill="#7B2FF2"/><rect x="15" y="10" width="1.02" height="1.02" fill="#7B2FF2"/><rect x="15" y="11" width="1.02" height="1.02" fill="#7B2FF2"/><rect x="15" y="12" width="1.02" height="1.02" fill="#C9A3FF"/><rect x="15" y="13" width="1.02" height="1.02" fill="#C9A3FF"/><rect x="15" y="14" width="1.02" height="1.02" fill="#2A0A55"/><rect x="15" y="15" width="1.02" height="1.02" fill="#2A0A55"/><rect x="16" y="1" width="1.02" height="1.02" fill="#2A0A55"/><rect x="16" y="2" width="1.02" height="1.02" fill="#7B2FF2"/><rect x="16" y="3" width="1.02" height="1.02" fill="#7B2FF2"/><rect x="16" y="4" width="1.02" height="1.02" fill="#7B2FF2"/><rect x="16" y="5" width="1.02" height="1.02" fill="#7B2FF2"/><rect x="16" y="6" width="1.02" height="1.02" fill="#7B2FF2"/><rect x="16" y="7" width="1.02" height="1.02" fill="#FF6FA0"/><rect x="16" y="8" width="1.02" height="1.02" fill="#7B2FF2"/><rect x="16" y="9" width="1.02" height="1.02" fill="#7B2FF2"/><rect x="16" y="10" width="1.02" height="1.02" fill="#7B2FF2"/><rect x="16" y="11" width="1.02" height="1.02" fill="#7B2FF2"/><rect x="16" y="12" width="1.02" height="1.02" fill="#C9A3FF"/><rect x="16" y="13" width="1.02" height="1.02" fill="#C9A3FF"/><rect x="16" y="14" width="1.02" height="1.02" fill="#5A1BB8"/><rect x="16" y="15" width="1.02" height="1.02" fill="#C9A3FF"/><rect x="16" y="16" width="1.02" height="1.02" fill="#2A0A55"/><rect x="17" y="0" width="1.02" height="1.02" fill="#2A0A55"/><rect x="17" y="1" width="1.02" height="1.02" fill="#7B2FF2"/><rect x="17" y="2" width="1.02" height="1.02" fill="#FF8FB1"/><rect x="17" y="3" width="1.02" height="1.02" fill="#7B2FF2"/><rect x="17" y="4" width="1.02" height="1.02" fill="#7B2FF2"/><rect x="17" y="5" width="1.02" height="1.02" fill="#1E0A3C"/><rect x="17" y="6" width="1.02" height="1.02" fill="#1E0A3C"/><rect x="17" y="7" width="1.02" height="1.02" fill="#7B2FF2"/><rect x="17" y="8" width="1.02" height="1.02" fill="#7B2FF2"/><rect x="17" y="9" width="1.02" height="1.02" fill="#7B2FF2"/><rect x="17" y="10" width="1.02" height="1.02" fill="#7B2FF2"/><rect x="17" y="11" width="1.02" height="1.02" fill="#7B2FF2"/><rect x="17" y="12" width="1.02" height="1.02" fill="#C9A3FF"/><rect x="17" y="13" width="1.02" height="1.02" fill="#C9A3FF"/><rect x="17" y="14" width="1.02" height="1.02" fill="#5A1BB8"/><rect x="17" y="15" width="1.02" height="1.02" fill="#C9A3FF"/><rect x="17" y="16" width="1.02" height="1.02" fill="#2A0A55"/><rect x="18" y="1" width="1.02" height="1.02" fill="#2A0A55"/><rect x="18" y="2" width="1.02" height="1.02" fill="#7B2FF2"/><rect x="18" y="3" width="1.02" height="1.02" fill="#7B2FF2"/><rect x="18" y="4" width="1.02" height="1.02" fill="#7B2FF2"/><rect x="18" y="5" width="1.02" height="1.02" fill="#FFFFFF"/><rect x="18" y="6" width="1.02" height="1.02" fill="#1E0A3C"/><rect x="18" y="7" width="1.02" height="1.02" fill="#7B2FF2"/><rect x="18" y="8" width="1.02" height="1.02" fill="#7B2FF2"/><rect x="18" y="9" width="1.02" height="1.02" fill="#7B2FF2"/><rect x="18" y="10" width="1.02" height="1.02" fill="#7B2FF2"/><rect x="18" y="11" width="1.02" height="1.02" fill="#7B2FF2"/><rect x="18" y="12" width="1.02" height="1.02" fill="#C9A3FF"/><rect x="18" y="13" width="1.02" height="1.02" fill="#C9A3FF"/><rect x="18" y="14" width="1.02" height="1.02" fill="#2A0A55"/><rect x="18" y="15" width="1.02" height="1.02" fill="#2A0A55"/><rect x="18" y="16" width="1.02" height="1.02" fill="#2A0A55"/><rect x="19" y="2" width="1.02" height="1.02" fill="#2A0A55"/><rect x="19" y="3" width="1.02" height="1.02" fill="#7B2FF2"/><rect x="19" y="4" width="1.02" height="1.02" fill="#7B2FF2"/><rect x="19" y="5" width="1.02" height="1.02" fill="#7B2FF2"/><rect x="19" y="6" width="1.02" height="1.02" fill="#7B2FF2"/><rect x="19" y="7" width="1.02" height="1.02" fill="#FF8FB1"/><rect x="19" y="8" width="1.02" height="1.02" fill="#5A1BB8"/><rect x="19" y="9" width="1.02" height="1.02" fill="#7B2FF2"/><rect x="19" y="10" width="1.02" height="1.02" fill="#7B2FF2"/><rect x="19" y="11" width="1.02" height="1.02" fill="#7B2FF2"/><rect x="19" y="12" width="1.02" height="1.02" fill="#7B2FF2"/><rect x="19" y="13" width="1.02" height="1.02" fill="#5A1BB8"/><rect x="19" y="14" width="1.02" height="1.02" fill="#5A1BB8"/><rect x="19" y="15" width="1.02" height="1.02" fill="#5A1BB8"/><rect x="19" y="16" width="1.02" height="1.02" fill="#C9A3FF"/><rect x="19" y="17" width="1.02" height="1.02" fill="#2A0A55"/><rect x="20" y="2" width="1.02" height="1.02" fill="#2A0A55"/><rect x="20" y="3" width="1.02" height="1.02" fill="#7B2FF2"/><rect x="20" y="4" width="1.02" height="1.02" fill="#7B2FF2"/><rect x="20" y="5" width="1.02" height="1.02" fill="#7B2FF2"/><rect x="20" y="6" width="1.02" height="1.02" fill="#7B2FF2"/><rect x="20" y="7" width="1.02" height="1.02" fill="#FF8FB1"/><rect x="20" y="8" width="1.02" height="1.02" fill="#5A1BB8"/><rect x="20" y="9" width="1.02" height="1.02" fill="#7B2FF2"/><rect x="20" y="10" width="1.02" height="1.02" fill="#7B2FF2"/><rect x="20" y="11" width="1.02" height="1.02" fill="#7B2FF2"/><rect x="20" y="12" width="1.02" height="1.02" fill="#7B2FF2"/><rect x="20" y="13" width="1.02" height="1.02" fill="#5A1BB8"/><rect x="20" y="14" width="1.02" height="1.02" fill="#5A1BB8"/><rect x="20" y="15" width="1.02" height="1.02" fill="#5A1BB8"/><rect x="20" y="16" width="1.02" height="1.02" fill="#C9A3FF"/><rect x="20" y="17" width="1.02" height="1.02" fill="#2A0A55"/><rect x="21" y="1" width="1.02" height="1.02" fill="#2A0A55"/><rect x="21" y="2" width="1.02" height="1.02" fill="#7B2FF2"/><rect x="21" y="3" width="1.02" height="1.02" fill="#7B2FF2"/><rect x="21" y="4" width="1.02" height="1.02" fill="#7B2FF2"/><rect x="21" y="5" width="1.02" height="1.02" fill="#1E0A3C"/><rect x="21" y="6" width="1.02" height="1.02" fill="#1E0A3C"/><rect x="21" y="7" width="1.02" height="1.02" fill="#7B2FF2"/><rect x="21" y="8" width="1.02" height="1.02" fill="#7B2FF2"/><rect x="21" y="9" width="1.02" height="1.02" fill="#7B2FF2"/><rect x="21" y="10" width="1.02" height="1.02" fill="#2A0A55"/><rect x="21" y="11" width="1.02" height="1.02" fill="#2A0A55"/><rect x="21" y="12" width="1.02" height="1.02" fill="#2A0A55"/><rect x="21" y="13" width="1.02" height="1.02" fill="#2A0A55"/><rect x="21" y="14" width="1.02" height="1.02" fill="#2A0A55"/><rect x="21" y="15" width="1.02" height="1.02" fill="#2A0A55"/><rect x="21" y="16" width="1.02" height="1.02" fill="#2A0A55"/><rect x="22" y="0" width="1.02" height="1.02" fill="#2A0A55"/><rect x="22" y="1" width="1.02" height="1.02" fill="#7B2FF2"/><rect x="22" y="2" width="1.02" height="1.02" fill="#FF8FB1"/><rect x="22" y="3" width="1.02" height="1.02" fill="#7B2FF2"/><rect x="22" y="4" width="1.02" height="1.02" fill="#7B2FF2"/><rect x="22" y="5" width="1.02" height="1.02" fill="#FFFFFF"/><rect x="22" y="6" width="1.02" height="1.02" fill="#1E0A3C"/><rect x="22" y="7" width="1.02" height="1.02" fill="#7B2FF2"/><rect x="22" y="8" width="1.02" height="1.02" fill="#7B2FF2"/><rect x="22" y="9" width="1.02" height="1.02" fill="#7B2FF2"/><rect x="22" y="10" width="1.02" height="1.02" fill="#2A0A55"/><rect x="23" y="1" width="1.02" height="1.02" fill="#2A0A55"/><rect x="23" y="2" width="1.02" height="1.02" fill="#7B2FF2"/><rect x="23" y="3" width="1.02" height="1.02" fill="#7B2FF2"/><rect x="23" y="4" width="1.02" height="1.02" fill="#7B2FF2"/><rect x="23" y="5" width="1.02" height="1.02" fill="#7B2FF2"/><rect x="23" y="6" width="1.02" height="1.02" fill="#7B2FF2"/><rect x="23" y="7" width="1.02" height="1.02" fill="#FF6FA0"/><rect x="23" y="8" width="1.02" height="1.02" fill="#7B2FF2"/><rect x="23" y="9" width="1.02" height="1.02" fill="#7B2FF2"/><rect x="23" y="10" width="1.02" height="1.02" fill="#2A0A55"/><rect x="24" y="2" width="1.02" height="1.02" fill="#2A0A55"/><rect x="24" y="3" width="1.02" height="1.02" fill="#2A0A55"/><rect x="24" y="4" width="1.02" height="1.02" fill="#7B2FF2"/><rect x="24" y="5" width="1.02" height="1.02" fill="#7B2FF2"/><rect x="24" y="6" width="1.02" height="1.02" fill="#7B2FF2"/><rect x="24" y="7" width="1.02" height="1.02" fill="#7B2FF2"/><rect x="24" y="8" width="1.02" height="1.02" fill="#7B2FF2"/><rect x="24" y="9" width="1.02" height="1.02" fill="#2A0A55"/><rect x="25" y="4" width="1.02" height="1.02" fill="#2A0A55"/><rect x="25" y="5" width="1.02" height="1.02" fill="#2A0A55"/><rect x="25" y="6" width="1.02" height="1.02" fill="#2A0A55"/><rect x="25" y="7" width="1.02" height="1.02" fill="#2A0A55"/><rect x="25" y="8" width="1.02" height="1.02" fill="#2A0A55"/></g><g class="blink"><rect x="17" y="5" width="1.02" height="1.02" fill="#7B2FF2"/><rect x="18" y="5" width="1.02" height="1.02" fill="#7B2FF2"/><rect x="21" y="5" width="1.02" height="1.02" fill="#7B2FF2"/><rect x="22" y="5" width="1.02" height="1.02" fill="#7B2FF2"/><rect x="17" y="6" width="1.02" height="1.02" fill="#1E0A3C"/><rect x="18" y="6" width="1.02" height="1.02" fill="#1E0A3C"/><rect x="21" y="6" width="1.02" height="1.02" fill="#1E0A3C"/><rect x="22" y="6" width="1.02" height="1.02" fill="#1E0A3C"/></g></g><g class="heart"><g transform="translate(25 0)"><rect x="0" y="0" width="1" height="1" fill="#FF6FA0"/><rect x="2" y="0" width="1" height="1" fill="#FF6FA0"/><rect x="0" y="1" width="3" height="1" fill="#FF6FA0"/><rect x="1" y="2" width="1" height="1" fill="#FF6FA0"/></g></g></svg>